<svg xmlns="http://www.w3.org/2000/svg" version="1.1" xmlns:xlink="http://www.w3.org/1999/xlink" xmlns:svgjs="http://svgjs.dev/svgjs" width="2000" height="2242" viewBox="0 0 2000 2242"><g transform="matrix(1,0,0,1,-3.1151183800621993,0)"><svg viewBox="0 0 321 360" data-background-color="#61777f" preserveAspectRatio="xMidYMid meet" height="2242" width="2000" xmlns="http://www.w3.org/2000/svg" xmlns:xlink="http://www.w3.org/1999/xlink"><g id="tight-bounds" transform="matrix(1,0,0,1,0.5000234999999975,0)"><svg viewBox="0 0 320 360" height="360" width="320"><g><svg></svg></g><g><svg viewBox="0 0 320 360" height="360" width="320"><g><path transform="translate(-74.99272,-51.79039) scale(4.65793,4.65793)" d="M20.6 59.9l0.8 1-0.4-1.3c-0.1-0.6-0.8 0.1-0.4 0.3M21.5 59.3c0.3 0.5 0.6 1 0.6 1.5 0 0.7 0.6 1 1.1 1.2-0.7-0.8-1.1-3-1.7-2.7M59.9 16.9c1.7 0 3.3-0.2 5.1 0.2 4.4 1.1 8.1 3.3 10.6 6.4l7 11.2c0.3 2.8 0.9 5.9 0.8 9.3 0.7 0 0.6-1 1.4-1.2-0.8 2-1.2 4.5-1.4 7.4-0.5-1.6 0-4 0.1-5.3-0.7 1.1-1.1 0.3-1.1-0.2 0.1-0.8-0.3-0.7-0.6-1-1.1-1-1.8-2.1-2.6-3.8 0.5-1.3 0.6-3.2-1-4.2-0.5-0.3-1.1-0.8-1.4-1.6-0.4-1.1-1.1-2.4-0.9-4.1 0.1-0.5-1.5 1.1-2.4 0.4-3.9-2.7-7.8-5.8-12.5-8.4-2.5 0-4.3-0.9-5.2-2-0.8-1-0.2-2.3 1-2.4 0.7 0 1.5-0.2 2.1 0.2 0.1-0.4 0.5-0.9 1-0.9M50 14.6l0.2 0.1c1 0.2 1.5 1.6 2.6 1.1 0 0.7 0.1 1.4-0.1 1.9-0.3 0.8-1.2 0.8-1.9 0.8-6.7-0.4-10.6 2.4-14.7 4.8-1.1 0.7-2.3 1.2-3.2 2.1-4.3 4-9 7.7-10.1 15.1l-0.9 8.2c-0.1 0.9-1.1 1.8-0.9 2.9l0.7 4.9c-0.7-0.7-1.1 0.2-0.9 0.6 0.1 0.3 0.5 1.3 1.1 0.4 0.8 1.5 1.6 4.4 2.7 5.7 3.4 4 7.8 7.6 11.4 11.2 0.9-0.2 1.6-0.2 1.8-0.8 0.3 0.6-0.3 1.2-0.8 1.3 1.6 1 3.4 1.9 5.8 2.1 3.1 0.2 6 0.7 8.7 1.4 1.4-0.4 2.8-0.6 4.3-0.7 0.5 0 0.8-0.8 1.4-1l0.1-1c0.6 0.9 0.5-0.3 0.1-0.9 0.7 0.6 0.9 1.1 1.2 1.5 0-0.3 0.8-1.4 0.8-0.1l0.2-1.3c0.3-0.2 0.4 1.1 0.7 0.2 0.3-0.9 0.9-0.2 1.5-0.5-0.2 0.4-0.1 1.2 0.6 0.7l0.8-0.7c0.5 1.2 1.3 0.7 1.7 0.5 4.4-2.8 8.8-6.1 13-9.4l-0.1 1.3 0.5-1.6c0.5 0.5 0.9 0.1 1.1-0.2 0.6-1 1.4-2 2.7-2.9-1.6 4.3-3.5 7.7-5.9 10.5l-1 1.2c0 0.7-0.2 1.6-1 1.7-0.4 0.1-1.2-0.2-1.8 0.4-0.3 0.4 0.7 1.2-0.1 0.6-0.7-0.5-1.4 0-2.2 0.2-0.6 0.2 0.4 0.8 0.6 1.2 0.2 0.4 0.4 0.8 0.3 1.3l-1.1-1.2c-1.3 0.7-2.1 2-3.2 3-0.5 0.4-0.3 1.1-0.3 1.7-0.7 0-1.5-0.2-1.9 0.2-0.3 0.4-0.2 1-0.2 1.6-1-0.1-1.1-1.6-2-1.3-0.9 0.2-1.9 0.3-2.7 0.8 0.6 1.2-1 0.5-0.8 0.7-1.5-0.9-2.8-1.6-4.4-1-3.4-1.1-7.6-0.6-10.7-0.2 0-0.5 0.1-1-0.1-1.1-0.2 0.5-0.8 0.3-0.7 0.3-1.9-1.3-3.8-2.1-5.8-3.2-1.8 0.2-3.5-0.7-4-1.2-1.4-1.3-3-0.6-4.3-0.9-2.8-0.7-3.8-3.6-4.1-5.6-0.2-1-1-1.4-1.3-1.3-1.3-4.2-3.3-8-4.9-11.9-0.4-1-0.3-2-0.3-3.1 0.5 0.2 1 0.1 0.9-0.6-0.5-3.3-1.7-5.8-3-8.2 0.7-3.4 0.8-7.4 2.4-10.4 1.4-2.7 4-4.1 5.8-6.4 0.6-0.8 0.6-1.9 1.2-2.6 2-2 4-4.1 6.2-5.9 1-0.8 2.2 0 3.7-0.3 0.5-1.8 2.5-3.4 4.4-2.9 0.8 0.2 2.4-1.9 2.9-2.1 0.8-0.3 0.4 0.8 0.4 1.5 1.9-1.5 4.5-2.3 6.9-3.2" fill="#ffffff" fill-rule="nonzero" stroke="none" stroke-width="1" stroke-linecap="butt" stroke-linejoin="miter" stroke-miterlimit="10" stroke-dasharray="" stroke-dashoffset="0" font-family="none" font-weight="none" font-size="none" text-anchor="none" style="mix-blend-mode: normal" data-fill-palette-color="tertiary"></path></g><g transform="matrix(1,0,0,1,64,95.35648046079152)"><svg viewBox="0 0 192 169.28703907841697" height="169.28703907841697" width="192"><g><svg viewBox="0 0 192 169.28703907841697" height="169.28703907841697" width="192"><g><svg viewBox="0 0 192 169.28703907841697" height="169.28703907841697" width="192"><g transform="matrix(1,0,0,1,0,102.32021607328826)"><svg viewBox="0 0 192 66.9668230051287" height="66.9668230051287" width="192"><g id="textblocktransform"><svg viewBox="0 0 192 66.9668230051287" height="66.9668230051287" width="192" id="textblock"><g><svg viewBox="0 0 192 66.9668230051287" height="66.9668230051287" width="192"><g transform="matrix(1,0,0,1,0,0)"><svg width="192" viewBox="2.3416666666699997 -34.55 101.19833333333001 35.3" height="66.9668230051287" data-palette-color="#ffffff"><path d="M14.35 0.4L10.35 0.4Q9.55 0.4 9.2-0.73 8.85-1.85 8.85-3.2L8.85-3.2Q8.85-4.55 9.03-6.23 9.2-7.9 9.55-10.8L9.55-10.8 11.7-29.8 5-28.35Q4.4-28.25 3.98-28.18 3.55-28.1 3.35-28.1L3.35-28.1Q2.8-28.1 2.55-28.45 2.3-28.8 2.35-29.3L2.35-29.3Q2.4-30.55 2.73-31.6 3.05-32.65 3.55-33.33 4.05-34 4.65-34L4.65-34 15.4-34Q19.25-34 21.43-34.15 23.6-34.3 24.68-34.43 25.75-34.55 26.3-34.55L26.3-34.55Q26.8-34.55 27-34.35 27.2-34.15 27.25-33.55L27.25-33.55Q27.3-32.55 26.98-31.45 26.65-30.35 26.13-29.58 25.6-28.8 25.05-28.8L25.05-28.8Q24.7-28.8 24-28.93 23.3-29.05 22.4-29.15L22.4-29.15 17.65-29.8 14.35 0.4ZM32.4 0.75L32.4 0.75Q28.1 0.75 25.72-1.78 23.35-4.3 23.35-9.2L23.35-9.2Q23.35-12.45 24.42-15.23 25.5-18 27.35-20.1 29.2-22.2 31.62-23.38 34.05-24.55 36.75-24.55L36.75-24.55Q41.05-24.55 43.32-22 45.6-19.45 45.6-14.3L45.6-14.3Q45.6-11.2 44.57-8.47 43.55-5.75 41.75-3.68 39.95-1.6 37.55-0.43 35.15 0.75 32.4 0.75ZM33.6-3L33.6-3Q35.5-3 36.87-4.4 38.25-5.8 38.97-8.25 39.7-10.7 39.7-13.75L39.7-13.75Q39.7-17 38.72-18.9 37.75-20.8 35.5-20.8L35.5-20.8Q33.65-20.8 32.22-19.4 30.8-18 30.02-15.58 29.25-13.15 29.25-10.05L29.25-10.05Q29.25-6.6 30.35-4.8 31.45-3 33.6-3ZM51.35 0.4L51.35 0.4Q50.45 0.4 49.97-0.6 49.5-1.6 49.5-2.95L49.5-2.95Q49.5-4.9 49.95-9.3L49.95-9.3 52.45-34Q55.15-34.25 57.82-34.38 60.5-34.5 62.8-34.5L62.8-34.5Q70.65-34.5 74.92-30.68 79.2-26.85 79.2-20L79.2-20Q79.2-14.2 76.75-9.68 74.3-5.15 69.67-2.58 65.05 0 58.4 0L58.4 0Q56.4 0 54.67 0.2 52.95 0.4 51.35 0.4ZM55.85-3.75L55.85-3.75Q61.25-3.75 64.97-5.73 68.7-7.7 70.62-11.23 72.55-14.75 72.55-19.4L72.55-19.4Q72.55-24.9 69.47-27.83 66.4-30.75 59.4-30.75L59.4-30.75 58.15-30.75 55.9-7.95Q55.85-7.1 55.82-6 55.8-4.9 55.85-3.75ZM90.34 0.75L90.34 0.75Q86.04 0.75 83.67-1.78 81.29-4.3 81.29-9.2L81.29-9.2Q81.29-12.45 82.37-15.23 83.44-18 85.29-20.1 87.14-22.2 89.57-23.38 91.99-24.55 94.69-24.55L94.69-24.55Q98.99-24.55 101.27-22 103.54-19.45 103.54-14.3L103.54-14.3Q103.54-11.2 102.52-8.47 101.49-5.75 99.69-3.68 97.89-1.6 95.49-0.43 93.09 0.75 90.34 0.75ZM91.54-3L91.54-3Q93.44-3 94.82-4.4 96.19-5.8 96.92-8.25 97.64-10.7 97.64-13.75L97.64-13.75Q97.64-17 96.67-18.9 95.69-20.8 93.44-20.8L93.44-20.8Q91.59-20.8 90.17-19.4 88.74-18 87.97-15.58 87.19-13.15 87.19-10.05L87.19-10.05Q87.19-6.6 88.29-4.8 89.39-3 91.54-3Z" opacity="1" transform="matrix(1,0,0,1,0,0)" fill="#ffffff" class="wordmark-text-0" data-fill-palette-color="primary" id="text-0"></path></svg></g></svg></g></svg></g></svg></g><g transform="matrix(1,0,0,1,49.9907160081221,0)"><svg viewBox="0 0 92.0185679837558 92.54814939308787" height="92.54814939308787" width="92.0185679837558"><g><svg xmlns="http://www.w3.org/2000/svg" xmlns:xlink="http://www.w3.org/1999/xlink" version="1.1" x="0" y="0" viewBox="5.258 4.999999675039011 89.485 90.000000324961" enable-background="new 0 0 100 100" xml:space="preserve" height="92.54814939308787" width="92.0185679837558" class="icon-icon-0" data-fill-palette-color="accent" id="icon-0"><rect x="35.232" y="42.398" width="8.669" height="8.666" fill="#ffffff" data-fill-palette-color="accent"></rect><rect x="35.232" y="55.717" width="8.669" height="8.672" fill="#ffffff" data-fill-palette-color="accent"></rect><rect x="35.232" y="69.042" width="8.669" height="8.672" fill="#ffffff" data-fill-palette-color="accent"></rect><rect x="19.667" y="55.717" width="8.668" height="8.672" fill="#ffffff" data-fill-palette-color="accent"></rect><rect x="19.667" y="69.042" width="8.668" height="8.672" fill="#ffffff" data-fill-palette-color="accent"></rect><path d="M31.982 16.959A6.18 6.18 0 0 1 25.801 23.138 6.18 6.18 0 0 1 19.62 16.959V11.181A6.18 6.18 0 1 1 31.982 11.181z" fill="#ffffff" data-fill-palette-color="accent"></path><path d="M74.191 16.959A6.174 6.174 0 0 1 68.013 23.138 6.183 6.183 0 0 1 61.829 16.959V11.181A6.187 6.187 0 0 1 68.014 5 6.176 6.176 0 0 1 74.192 11.181z" fill="#ffffff" data-fill-palette-color="accent"></path><path d="M71.643 95C58.91 95 48.542 84.617 48.542 71.857 48.542 59.085 58.911 48.713 71.643 48.713S94.743 59.085 94.743 71.857C94.742 84.617 84.375 95 71.643 95M71.643 54.463C62.077 54.463 54.293 62.266 54.293 71.858 54.293 81.439 62.076 89.243 71.643 89.243S88.989 81.439 88.989 71.858C88.988 62.266 81.209 54.463 71.643 54.463" fill="#ffffff" data-fill-palette-color="accent"></path><path d="M71.865 74.504A1.917 1.917 0 0 1 69.283 73.655 1.923 1.923 0 0 1 70.127 71.056L82.572 64.784A1.92 1.92 0 0 1 85.16 65.634 1.913 1.913 0 0 1 84.306 68.223z" fill="#ffffff" data-fill-palette-color="accent"></path><path d="M68.295 72.41A2.98 2.98 0 0 1 71.506 69.664 2.98 2.98 0 0 1 74.246 72.874 2.986 2.986 0 0 1 71.035 75.62 2.99 2.99 0 0 1 68.295 72.41" fill="#ffffff" data-fill-palette-color="accent"></path><path d="M71.643 45.305C72.793 45.305 73.92 45.404 75.032 45.545V42.398H66.364V45.835A26.6 26.6 0 0 1 71.643 45.305" fill="#ffffff" data-fill-palette-color="accent"></path><path d="M59.469 48.292V42.398H50.797V51.064H55.2A26.5 26.5 0 0 1 59.469 48.292" fill="#ffffff" data-fill-palette-color="accent"></path><path d="M49.49 86.396L49.483 86.384A27 27 0 0 1 48.01 83.81H11.589V36.3H82.216V47.518L82.22 47.52C83.267 47.978 84.267 48.515 85.238 49.099A27 27 0 0 1 88.558 51.426V15.754H77.471V16.959C77.471 22.169 73.229 26.415 68.014 26.415S58.561 22.17 58.561 16.959V15.754H35.254V16.959C35.254 22.169 31.011 26.415 25.801 26.415 20.583 26.415 16.348 22.17 16.348 16.959V15.754H5.258V88.786H51.238C51.236 88.786 51.236 88.783 51.234 88.783A27 27 0 0 1 49.49 86.396" fill="#ffffff" data-fill-palette-color="accent"></path></svg></g></svg></g><g></g></svg></g></svg></g></svg></g></svg></g><defs></defs></svg><rect width="320" height="360" fill="none" stroke="none" visibility="hidden"></rect></g></svg></g></svg>